<?xml version="1.0" encoding="utf-8"?>
<!-- Generator: Adobe Illustrator 25.1.0, SVG Export Plug-In . SVG Version: 6.00 Build 0)  -->
<svg version="1.1" id="Layer_1" xmlns="http://www.w3.org/2000/svg" xmlns:xlink="http://www.w3.org/1999/xlink" x="0px" y="0px"
	 viewBox="0 0 1920 540" style="enable-background:new 0 0 1920 540;" xml:space="preserve">
<g>
	<path d="M112.6,452.5l49.6,7.9v5.4H3.8l0.6-5.4l49-7.9l68.9-394.1L72.1,46.3l0.6-3.6L244.4,42c61.7-0.6,115.5,15.7,115.5,68.3
		c0,119.7-100.3,160.8-213.4,160.8L112.6,452.5z M197.3,259.7c68.9,0,107-79.2,107-137.8c0-37.5-30.2-69.5-76.8-70.1
		c-16.3,0.6-38.1,1.8-44.7,6.7l-35.1,202.5C165.8,262.1,179.1,259.7,197.3,259.7z"/>
	<path d="M333.9,385.4c0-111.2,112.4-214.6,206.1-211.6c19.3,7.3,49,19.3,49.6,82.2c0,100.3-100.3,218.2-199.5,217.6
		C364.1,467.6,333.3,444,333.9,385.4z M530.9,265.1c2.4-32-10.9-68.3-40.5-70.7c-60.5-6-97.9,110-97.9,191.6
		c0,34.5,10.3,65.9,35.1,68.3C491.7,460.4,523.1,357.6,530.9,265.1z"/>
	<path d="M816.3,194.4l-42.9,37.5c-7.3-10.9-15.1-13.3-23.6-13.3c-14.5,0-47.8,33.2-65.9,62.9l-26.6,174.7l38.7,6.6l-0.6,3H561.2
		l0.6-3l41.7-6.6l45.9-260.5l-29-10.3l0.6-3.6h82.8l6.6,1.2l-33.9,96.7h1.8c20.6-33.9,75.6-99.1,87-102.8
		C792.1,175,810.2,179.9,816.3,194.4z"/>
	<path d="M998.2,181.7l-1.2,6.7l-23.6,10.9h-65.3c-13.9,84-32.6,195.9-32.6,202.5c0,24.8,11.5,36.3,26,36.9
		c13.3,0,25.4-4.8,57.4-24.8l3,3.6c-35.7,25.4-47.8,37.5-81,56.2c-42.3-3-61.1-23.6-61.1-61.7c0-7.9,26-160.2,33.9-212.8h-34.5
		l-11.5-10.9l1.2-6.7h47.2l59.8-75.6l7.3,0.6c0,2.4-4.8,33.2-12.1,75H998.2z"/>
	<path d="M1120.3,76.5l-21.2,112.4h86.4l-1.2,6.7l-23.6,3l-62.9-1.8l-57.4,307.1l-54.4,30.8h-0.6l56.8-339.1h-41.1l1.2-8.5l41.1-2.4
		h0.6l3.6-22.4c6.6-40.5,104.6-155.4,145.7-157.2c21.2,1.8,42.3,12.7,55,25.4L1205,67.4c-15.1-13.9-28.4-26-47.8-26
		C1143.9,41.4,1121.5,66.2,1120.3,76.5z"/>
	<path d="M1147.5,385.4c0-111.2,112.4-214.6,206.1-211.6c19.3,7.3,49,19.3,49.6,82.2c0,100.3-100.3,218.2-199.5,217.6
		C1177.7,467.6,1146.9,444,1147.5,385.4z M1344.6,265.1c2.4-32-10.9-68.3-40.5-70.7c-60.5-6-97.9,110-97.9,191.6
		c0,34.5,10.3,65.9,35.1,68.3C1305.3,460.4,1336.7,357.6,1344.6,265.1z"/>
	<path d="M1492.1,25.1l-38.7-7.9l0.6-3.6l87-1.2l7.3,0.6l-76.2,443.1l36.9,6.6l-0.6,3h-91.9L1492.1,25.1z"/>
	<path d="M1588.2,192l-29-6.6l0.6-3.6h76.8l7.3,1.2l-48.4,273.2l38.7,6.6l-0.6,3h-93.7L1588.2,192z M1608.8,70.5
		c1.2-17.5,13.3-30.2,30.8-29c17.5,1.8,27.2,16.3,25.4,33.9c-1.2,18.1-13.3,31.4-30.8,29.6C1616.6,103.1,1606.9,88.6,1608.8,70.5z"
		/>
	<path d="M1655.3,385.4c0-111.2,112.4-214.6,206.1-211.6c19.3,7.3,49,19.3,49.6,82.2c0,100.3-100.3,218.2-199.5,217.6
		C1685.5,467.6,1654.7,444,1655.3,385.4z M1852.4,265.1c2.4-32-10.9-68.3-40.5-70.7c-60.5-6-97.9,110-97.9,191.6
		c0,34.5,10.3,65.9,35.1,68.3C1813.1,460.4,1844.5,357.6,1852.4,265.1z"/>
</g>
</svg>
